# xmcd
#
# Track frame offsets: 
#        210
#        14510
#        28690
#        39234
#        51551
#        62841
#        74600
#        88854
#        103495
#        117212
#        131968
#        146108
#        159766
#        174716
#        188610
#        202781
#        215792
#        229412
#        242431
#        255660
#        269162
#        283175
#        298199
#
# Disc length: 4162 seconds
#
# Revision: 1
# Processed by: cddbd v1.5.1PL0 Copyright (c) Steve Scherf et al.
# Submitted via: ExactAudioCopy v0.90b4
#
DISCID=75104017
DTITLE=Blind Willie McTell - Broke Down Engine Blues [Wolf][Austria]
DYEAR=2001
DGENRE=Blues
TTITLE0=Writin' Paper Blues
TTITLE1=Stole Rider Blues
TTITLE2=Mr. McTell Got The Blues (Take 1)
TTITLE3=Three Women Blues
TTITLE4=Statesboro Blues
TTITLE5=Loving Talking Blues
TTITLE6=Atlanta Strut
TTITLE7=Travelin' Blues
TTITLE8=Come On Around To My House Mama
TTITLE9=Razor Ball
TTITLE10=Broke Down Engine Blues
TTITLE11=Scarey Day Blues
TTITLE12=Low Rider's Blues
TTITLE13=Georgia Rag
TTITLE14=Searching The Desert For The Blues
TTITLE15=Broke Down Engine No. 2
TTITLE16=B and O Blues (Take 1)
TTITLE17=East St. Louis Blues
TTITLE18=Southern Can Blues
TTITLE19=Dying Gambler
TTITLE20=Let Me Play With Yo' Yo-Yo
TTITLE21=Ticket Agent Blues
TTITLE22=Cold Winter Day
EXTD=ID3G: 0
EXTT0=
EXTT1=
EXTT2=
EXTT3=
EXTT4=
EXTT5=
EXTT6=
EXTT7=
EXTT8=
EXTT9=
EXTT10=
EXTT11=
EXTT12=
EXTT13=
EXTT14=
EXTT15=
EXTT16=
EXTT17=
EXTT18=
EXTT19=
EXTT20=
EXTT21=
EXTT22=
PLAYORDER=
